<mxfile host="app.diagrams.net" modified="2023-09-20T08:48:11.746Z" agent="Mozilla/5.0 (Windows NT 10.0; Win64; x64) AppleWebKit/537.36 (KHTML, like Gecko) Chrome/114.0.0.0 Safari/537.36" etag="TET3YBMQQ7aCE0JzJCW6" version="21.7.5" type="github">
  <diagram name="第 1 页" id="W7pPAVuLPS2BY8f1pU6X">
    <mxGraphModel dx="1434" dy="764" grid="1" gridSize="10" guides="1" tooltips="1" connect="1" arrows="1" fold="1" page="1" pageScale="1" pageWidth="827" pageHeight="1169" math="0" shadow="0">
      <root>
        <mxCell id="0" />
        <mxCell id="1" parent="0" />
        <mxCell id="rOTXgITU9-X_C0XhXDGT-1" value="系统" style="shape=umlLifeline;perimeter=lifelinePerimeter;whiteSpace=wrap;html=1;container=1;dropTarget=0;collapsible=0;recursiveResize=0;outlineConnect=0;portConstraint=eastwest;newEdgeStyle={&quot;edgeStyle&quot;:&quot;elbowEdgeStyle&quot;,&quot;elbow&quot;:&quot;vertical&quot;,&quot;curved&quot;:0,&quot;rounded&quot;:0};" vertex="1" parent="1">
          <mxGeometry x="240" y="60" width="100" height="710" as="geometry" />
        </mxCell>
        <mxCell id="rOTXgITU9-X_C0XhXDGT-2" value="" style="html=1;points=[];perimeter=orthogonalPerimeter;outlineConnect=0;targetShapes=umlLifeline;portConstraint=eastwest;newEdgeStyle={&quot;edgeStyle&quot;:&quot;elbowEdgeStyle&quot;,&quot;elbow&quot;:&quot;vertical&quot;,&quot;curved&quot;:0,&quot;rounded&quot;:0};" vertex="1" parent="rOTXgITU9-X_C0XhXDGT-1">
          <mxGeometry x="45" y="70" width="10" height="130" as="geometry" />
        </mxCell>
        <mxCell id="rOTXgITU9-X_C0XhXDGT-3" value="判断是否有生效中证书若无则流程向下走" style="html=1;align=left;spacingLeft=2;endArrow=block;rounded=0;edgeStyle=orthogonalEdgeStyle;curved=0;rounded=0;" edge="1" parent="rOTXgITU9-X_C0XhXDGT-1">
          <mxGeometry relative="1" as="geometry">
            <mxPoint x="55" y="160" as="sourcePoint" />
            <Array as="points">
              <mxPoint x="85" y="190" />
            </Array>
            <mxPoint x="55" y="190" as="targetPoint" />
          </mxGeometry>
        </mxCell>
        <mxCell id="rOTXgITU9-X_C0XhXDGT-30" value="" style="html=1;points=[[0,0,0,0,5],[0,1,0,0,-5],[1,0,0,0,5],[1,1,0,0,-5]];perimeter=orthogonalPerimeter;outlineConnect=0;targetShapes=umlLifeline;portConstraint=eastwest;newEdgeStyle={&quot;curved&quot;:0,&quot;rounded&quot;:0};" vertex="1" parent="rOTXgITU9-X_C0XhXDGT-1">
          <mxGeometry x="45" y="210" width="10" height="80" as="geometry" />
        </mxCell>
        <mxCell id="rOTXgITU9-X_C0XhXDGT-31" value="" style="html=1;points=[[0,0,0,0,5],[0,1,0,0,-5],[1,0,0,0,5],[1,1,0,0,-5]];perimeter=orthogonalPerimeter;outlineConnect=0;targetShapes=umlLifeline;portConstraint=eastwest;newEdgeStyle={&quot;curved&quot;:0,&quot;rounded&quot;:0};" vertex="1" parent="rOTXgITU9-X_C0XhXDGT-1">
          <mxGeometry x="45" y="420" width="10" height="270" as="geometry" />
        </mxCell>
        <mxCell id="rOTXgITU9-X_C0XhXDGT-4" value="CFCA图片采取" style="shape=umlLifeline;perimeter=lifelinePerimeter;whiteSpace=wrap;html=1;container=1;dropTarget=0;collapsible=0;recursiveResize=0;outlineConnect=0;portConstraint=eastwest;newEdgeStyle={&quot;edgeStyle&quot;:&quot;elbowEdgeStyle&quot;,&quot;elbow&quot;:&quot;vertical&quot;,&quot;curved&quot;:0,&quot;rounded&quot;:0};" vertex="1" parent="1">
          <mxGeometry x="414" y="60" width="100" height="710" as="geometry" />
        </mxCell>
        <mxCell id="rOTXgITU9-X_C0XhXDGT-5" value="" style="html=1;points=[];perimeter=orthogonalPerimeter;outlineConnect=0;targetShapes=umlLifeline;portConstraint=eastwest;newEdgeStyle={&quot;edgeStyle&quot;:&quot;elbowEdgeStyle&quot;,&quot;elbow&quot;:&quot;vertical&quot;,&quot;curved&quot;:0,&quot;rounded&quot;:0};" vertex="1" parent="rOTXgITU9-X_C0XhXDGT-4">
          <mxGeometry x="45" y="441" width="10" height="70" as="geometry" />
        </mxCell>
        <mxCell id="rOTXgITU9-X_C0XhXDGT-6" value="采集图片" style="html=1;align=left;spacingLeft=2;endArrow=block;rounded=0;edgeStyle=orthogonalEdgeStyle;curved=0;rounded=0;" edge="1" parent="rOTXgITU9-X_C0XhXDGT-4" target="rOTXgITU9-X_C0XhXDGT-5">
          <mxGeometry x="0.011" relative="1" as="geometry">
            <mxPoint x="56" y="451" as="sourcePoint" />
            <Array as="points">
              <mxPoint x="86" y="451" />
              <mxPoint x="86" y="481" />
            </Array>
            <mxPoint as="offset" />
          </mxGeometry>
        </mxCell>
        <mxCell id="rOTXgITU9-X_C0XhXDGT-7" value="云签服务端" style="shape=umlLifeline;perimeter=lifelinePerimeter;whiteSpace=wrap;html=1;container=1;dropTarget=0;collapsible=0;recursiveResize=0;outlineConnect=0;portConstraint=eastwest;newEdgeStyle={&quot;edgeStyle&quot;:&quot;elbowEdgeStyle&quot;,&quot;elbow&quot;:&quot;vertical&quot;,&quot;curved&quot;:0,&quot;rounded&quot;:0};" vertex="1" parent="1">
          <mxGeometry x="600" y="60" width="100" height="710" as="geometry" />
        </mxCell>
        <mxCell id="rOTXgITU9-X_C0XhXDGT-8" value="" style="html=1;points=[];perimeter=orthogonalPerimeter;outlineConnect=0;targetShapes=umlLifeline;portConstraint=eastwest;newEdgeStyle={&quot;edgeStyle&quot;:&quot;elbowEdgeStyle&quot;,&quot;elbow&quot;:&quot;vertical&quot;,&quot;curved&quot;:0,&quot;rounded&quot;:0};" vertex="1" parent="rOTXgITU9-X_C0XhXDGT-7">
          <mxGeometry x="45" y="571" width="10" height="90" as="geometry" />
        </mxCell>
        <mxCell id="rOTXgITU9-X_C0XhXDGT-9" value="" style="html=1;points=[];perimeter=orthogonalPerimeter;outlineConnect=0;targetShapes=umlLifeline;portConstraint=eastwest;newEdgeStyle={&quot;edgeStyle&quot;:&quot;elbowEdgeStyle&quot;,&quot;elbow&quot;:&quot;vertical&quot;,&quot;curved&quot;:0,&quot;rounded&quot;:0};" vertex="1" parent="rOTXgITU9-X_C0XhXDGT-7">
          <mxGeometry x="45" y="80" width="10" height="60" as="geometry" />
        </mxCell>
        <mxCell id="rOTXgITU9-X_C0XhXDGT-35" value="" style="html=1;points=[[0,0,0,0,5],[0,1,0,0,-5],[1,0,0,0,5],[1,1,0,0,-5]];perimeter=orthogonalPerimeter;outlineConnect=0;targetShapes=umlLifeline;portConstraint=eastwest;newEdgeStyle={&quot;curved&quot;:0,&quot;rounded&quot;:0};" vertex="1" parent="rOTXgITU9-X_C0XhXDGT-7">
          <mxGeometry x="45" y="254" width="10" height="36" as="geometry" />
        </mxCell>
        <mxCell id="rOTXgITU9-X_C0XhXDGT-10" value="" style="shape=umlLifeline;perimeter=lifelinePerimeter;whiteSpace=wrap;html=1;container=1;dropTarget=0;collapsible=0;recursiveResize=0;outlineConnect=0;portConstraint=eastwest;newEdgeStyle={&quot;edgeStyle&quot;:&quot;elbowEdgeStyle&quot;,&quot;elbow&quot;:&quot;vertical&quot;,&quot;curved&quot;:0,&quot;rounded&quot;:0};participant=umlActor;" vertex="1" parent="1">
          <mxGeometry x="130" y="60" width="20" height="710" as="geometry" />
        </mxCell>
        <mxCell id="rOTXgITU9-X_C0XhXDGT-11" value="" style="html=1;points=[];perimeter=orthogonalPerimeter;outlineConnect=0;targetShapes=umlLifeline;portConstraint=eastwest;newEdgeStyle={&quot;edgeStyle&quot;:&quot;elbowEdgeStyle&quot;,&quot;elbow&quot;:&quot;vertical&quot;,&quot;curved&quot;:0,&quot;rounded&quot;:0};" vertex="1" parent="rOTXgITU9-X_C0XhXDGT-10">
          <mxGeometry x="5" y="70" width="10" height="620" as="geometry" />
        </mxCell>
        <mxCell id="rOTXgITU9-X_C0XhXDGT-12" value="进行证书印章申请" style="html=1;verticalAlign=bottom;endArrow=block;edgeStyle=elbowEdgeStyle;elbow=vertical;curved=0;rounded=0;" edge="1" parent="1" target="rOTXgITU9-X_C0XhXDGT-1">
          <mxGeometry width="80" relative="1" as="geometry">
            <mxPoint x="140" y="130" as="sourcePoint" />
            <mxPoint x="220" y="130" as="targetPoint" />
          </mxGeometry>
        </mxCell>
        <mxCell id="rOTXgITU9-X_C0XhXDGT-13" value="申请成功" style="html=1;verticalAlign=bottom;endArrow=open;dashed=1;endSize=8;edgeStyle=elbowEdgeStyle;elbow=vertical;curved=0;rounded=0;" edge="1" parent="1">
          <mxGeometry relative="1" as="geometry">
            <mxPoint x="280" y="721" as="sourcePoint" />
            <mxPoint x="145" y="721" as="targetPoint" />
          </mxGeometry>
        </mxCell>
        <mxCell id="rOTXgITU9-X_C0XhXDGT-14" value="用户" style="text;html=1;align=center;verticalAlign=middle;resizable=0;points=[];autosize=1;strokeColor=none;fillColor=none;" vertex="1" parent="1">
          <mxGeometry x="115" y="90" width="50" height="30" as="geometry" />
        </mxCell>
        <mxCell id="rOTXgITU9-X_C0XhXDGT-15" value="申请成功" style="html=1;verticalAlign=bottom;endArrow=open;dashed=1;endSize=8;edgeStyle=elbowEdgeStyle;elbow=vertical;curved=0;rounded=0;" edge="1" parent="1">
          <mxGeometry relative="1" as="geometry">
            <mxPoint x="650" y="721" as="sourcePoint" />
            <mxPoint x="289.5" y="721" as="targetPoint" />
          </mxGeometry>
        </mxCell>
        <mxCell id="rOTXgITU9-X_C0XhXDGT-16" value="调用云签服务获取证书列表接口" style="html=1;verticalAlign=bottom;endArrow=block;edgeStyle=elbowEdgeStyle;elbow=vertical;curved=0;rounded=0;" edge="1" parent="1" target="rOTXgITU9-X_C0XhXDGT-7">
          <mxGeometry width="80" relative="1" as="geometry">
            <mxPoint x="300" y="140" as="sourcePoint" />
            <mxPoint x="380" y="140" as="targetPoint" />
          </mxGeometry>
        </mxCell>
        <mxCell id="rOTXgITU9-X_C0XhXDGT-17" value="返回证书列表" style="html=1;verticalAlign=bottom;endArrow=open;dashed=1;endSize=8;edgeStyle=elbowEdgeStyle;elbow=vertical;curved=0;rounded=0;" edge="1" parent="1" target="rOTXgITU9-X_C0XhXDGT-2">
          <mxGeometry x="-0.0286" y="-10" relative="1" as="geometry">
            <mxPoint x="650" y="200" as="sourcePoint" />
            <mxPoint x="300" y="200" as="targetPoint" />
            <Array as="points">
              <mxPoint x="480" y="200" />
            </Array>
            <mxPoint as="offset" />
          </mxGeometry>
        </mxCell>
        <mxCell id="rOTXgITU9-X_C0XhXDGT-18" value="返回签名图片" style="html=1;verticalAlign=bottom;endArrow=open;dashed=1;endSize=8;edgeStyle=elbowEdgeStyle;elbow=vertical;curved=0;rounded=0;" edge="1" parent="1">
          <mxGeometry relative="1" as="geometry">
            <mxPoint x="454" y="571" as="sourcePoint" />
            <mxPoint x="295" y="571" as="targetPoint" />
          </mxGeometry>
        </mxCell>
        <mxCell id="rOTXgITU9-X_C0XhXDGT-19" value="获取CFCA图片采取器&lt;br&gt;的印章图片" style="html=1;verticalAlign=bottom;endArrow=block;edgeStyle=elbowEdgeStyle;elbow=vertical;curved=0;rounded=0;" edge="1" parent="1">
          <mxGeometry x="0.0061" width="80" relative="1" as="geometry">
            <mxPoint x="295" y="501" as="sourcePoint" />
            <mxPoint x="460" y="501" as="targetPoint" />
            <mxPoint as="offset" />
          </mxGeometry>
        </mxCell>
        <mxCell id="rOTXgITU9-X_C0XhXDGT-20" value="调用云签服务证书印章申请接口" style="html=1;verticalAlign=bottom;endArrow=block;edgeStyle=elbowEdgeStyle;elbow=vertical;curved=0;rounded=0;" edge="1" parent="1">
          <mxGeometry x="-0.0704" width="80" relative="1" as="geometry">
            <mxPoint x="295" y="631" as="sourcePoint" />
            <mxPoint x="650" y="631" as="targetPoint" />
            <mxPoint as="offset" />
          </mxGeometry>
        </mxCell>
        <mxCell id="rOTXgITU9-X_C0XhXDGT-23" value="" style="html=1;points=[[0,0,0,0,5],[0,1,0,0,-5],[1,0,0,0,5],[1,1,0,0,-5]];perimeter=orthogonalPerimeter;outlineConnect=0;targetShapes=umlLifeline;portConstraint=eastwest;newEdgeStyle={&quot;curved&quot;:0,&quot;rounded&quot;:0};" vertex="1" parent="1">
          <mxGeometry x="35" y="300" width="10" height="40" as="geometry" />
        </mxCell>
        <mxCell id="rOTXgITU9-X_C0XhXDGT-24" value="判断证书是否已过期，若正常流程向下走" style="html=1;align=left;spacingLeft=2;endArrow=block;rounded=0;edgeStyle=orthogonalEdgeStyle;curved=0;rounded=0;" edge="1" parent="1">
          <mxGeometry relative="1" as="geometry">
            <mxPoint x="295" y="270" as="sourcePoint" />
            <Array as="points">
              <mxPoint x="325" y="300" />
            </Array>
            <mxPoint x="295" y="300" as="targetPoint" />
            <mxPoint as="offset" />
          </mxGeometry>
        </mxCell>
        <mxCell id="rOTXgITU9-X_C0XhXDGT-32" value="" style="endArrow=block;endFill=1;html=1;edgeStyle=orthogonalEdgeStyle;align=left;verticalAlign=top;rounded=0;entryX=0;entryY=0;entryDx=0;entryDy=5;entryPerimeter=0;" edge="1" parent="1" target="rOTXgITU9-X_C0XhXDGT-35">
          <mxGeometry x="-1" relative="1" as="geometry">
            <mxPoint x="296" y="319" as="sourcePoint" />
            <mxPoint x="610" y="319" as="targetPoint" />
          </mxGeometry>
        </mxCell>
        <mxCell id="rOTXgITU9-X_C0XhXDGT-33" value="1" style="edgeLabel;resizable=0;html=1;align=left;verticalAlign=bottom;" connectable="0" vertex="1" parent="rOTXgITU9-X_C0XhXDGT-32">
          <mxGeometry x="-1" relative="1" as="geometry" />
        </mxCell>
        <mxCell id="rOTXgITU9-X_C0XhXDGT-34" value="证书已过期，调云签服务证书印章变更接口对证书进行续期" style="edgeLabel;html=1;align=center;verticalAlign=middle;resizable=0;points=[];" vertex="1" connectable="0" parent="rOTXgITU9-X_C0XhXDGT-32">
          <mxGeometry x="-0.9375" y="6" relative="1" as="geometry">
            <mxPoint x="151" y="-6" as="offset" />
          </mxGeometry>
        </mxCell>
        <mxCell id="rOTXgITU9-X_C0XhXDGT-36" value="续期成功" style="html=1;verticalAlign=bottom;endArrow=open;dashed=1;endSize=8;curved=0;rounded=0;" edge="1" parent="1" target="rOTXgITU9-X_C0XhXDGT-1">
          <mxGeometry relative="1" as="geometry">
            <mxPoint x="646" y="340" as="sourcePoint" />
            <mxPoint x="566" y="340" as="targetPoint" />
          </mxGeometry>
        </mxCell>
      </root>
    </mxGraphModel>
  </diagram>
</mxfile>
